<svg width="960" height="720" viewBox="0 0 960 720" fill="none" xmlns="http://www.w3.org/2000/svg">
  <rect width="960" height="720" rx="48" fill="#E9DCC2"/>
  <rect x="112" y="120" width="736" height="480" rx="48" fill="#FAF6EE"/>
  <path d="M280 394C280 282.438 370.438 192 482 192C593.562 192 684 282.438 684 394V430H632V394C632 311.156 564.844 244 482 244C399.156 244 332 311.156 332 394V430H280V394Z" fill="#2E2620"/>
  <rect x="236" y="396" width="116" height="188" rx="42" fill="#B8671A"/>
  <rect x="612" y="396" width="116" height="188" rx="42" fill="#B8671A"/>
  <rect x="368" y="448" width="228" height="72" rx="32" fill="#342C26"/>
  <rect x="392" y="470" width="180" height="28" rx="14" fill="#E8D1B0"/>
</svg>
